<?xml version="1.0" encoding="UTF-8" standalone="no"?><!DOCTYPE svg PUBLIC "-//W3C//DTD SVG 1.1//EN" "http://www.w3.org/Graphics/SVG/1.1/DTD/svg11.dtd"><svg width="100%" height="100%" viewBox="0 0 24 24" version="1.1" xmlns="http://www.w3.org/2000/svg" xmlns:xlink="http://www.w3.org/1999/xlink" xml:space="preserve" xmlns:serif="http://www.serif.com/" style="fill-rule:evenodd;clip-rule:evenodd;stroke-linejoin:round;stroke-miterlimit:2;"><path d="M19.359,23.128l-7.359,-5.838l-7.359,5.838l0,-22.256l14.718,0l0,22.256Zm-12.718,-20.256l0,16.117l4.116,-3.265l0.103,-0.077l0.107,-0.069l0.111,-0.063l0.115,-0.055l0.119,-0.047l0.121,-0.041l0.124,-0.032l0.125,-0.024l0.127,-0.016l0.127,-0.009l0.128,0l0.127,0.009l0.127,0.016l0.125,0.024l0.124,0.032l0.121,0.041l0.119,0.047l0.115,0.055l0.111,0.063l0.107,0.069l0.103,0.077l4.116,3.265l0,-16.117l-10.718,0Z" style="fill:#181818;"/></svg>